<svg xmlns="http://www.w3.org/2000/svg" width="30" height="30"><g id="_assignment" data-name=" assignment" transform="translate(-542 -154)"><rect id="Path" width="30" height="30" transform="translate(542 154)" fill="rgba(0,0,0,0)"/><path id="Icon" d="M18.667,24H2.334A2.37,2.37,0,0,1,0,21.6V4.8A2.371,2.371,0,0,1,2.334,2.4H7.21A3.53,3.53,0,0,1,10.5,0a3.531,3.531,0,0,1,3.291,2.4h4.876A2.37,2.37,0,0,1,21,4.8V21.6A2.37,2.37,0,0,1,18.667,24ZM5.834,16.8a1.2,1.2,0,0,0,0,2.4h5.834a1.2,1.2,0,0,0,0-2.4Zm0-4.8a1.2,1.2,0,0,0,0,2.4h9.333a1.2,1.2,0,0,0,0-2.4Zm0-4.8a1.2,1.2,0,0,0,0,2.4h9.333a1.2,1.2,0,0,0,0-2.4ZM10.5,2.4a1.2,1.2,0,1,0,1.167,1.2A1.186,1.186,0,0,0,10.5,2.4Z" transform="translate(546.499 155.5)" fill="#fff"/></g></svg>